<svg width="473" height="140" viewBox="0 0 473 140" fill="none" xmlns="http://www.w3.org/2000/svg">
<path d="M16.4591 60.7387V109H0.636542V0.623687H16.2474V40.9473H17.2528C19.1579 36.5727 22.0684 33.0978 25.9843 30.5224C29.9003 27.9471 35.0157 26.6594 41.3306 26.6594C46.9046 26.6594 51.7731 27.806 55.936 30.0991C60.1341 32.3922 63.3798 35.8142 65.6729 40.3652C68.0013 44.8809 69.1655 50.5255 69.1655 57.299V109H53.343V59.204C53.343 53.2419 51.8084 48.6204 48.7391 45.3395C45.6699 42.0233 41.4011 40.3652 35.9329 40.3652C32.1934 40.3652 28.8419 41.159 25.8785 42.7465C22.9504 44.3341 20.6396 46.6625 18.9462 49.7317C17.2881 52.7657 16.4591 56.4347 16.4591 60.7387ZM124.518 110.64C116.898 110.64 110.248 108.894 104.568 105.402C98.8879 101.909 94.478 97.0229 91.3382 90.7432C88.1984 84.4636 86.6285 77.1257 86.6285 68.7293C86.6285 60.2977 88.1984 52.9244 91.3382 46.6095C94.478 40.2946 98.8879 35.3909 104.568 31.8983C110.248 28.4057 116.898 26.6594 124.518 26.6594C132.138 26.6594 138.788 28.4057 144.468 31.8983C150.148 35.3909 154.558 40.2946 157.698 46.6095C160.837 52.9244 162.407 60.2977 162.407 68.7293C162.407 77.1257 160.837 84.4636 157.698 90.7432C154.558 97.0229 150.148 101.909 144.468 105.402C138.788 108.894 132.138 110.64 124.518 110.64ZM124.571 97.358C129.51 97.358 133.602 96.0527 136.848 93.4421C140.093 90.8314 142.492 87.3565 144.045 83.0172C145.632 78.6779 146.426 73.8976 146.426 68.6764C146.426 63.4904 145.632 58.7278 144.045 54.3885C142.492 50.0139 140.093 46.5037 136.848 43.8578C133.602 41.2119 129.51 39.8889 124.571 39.8889C119.596 39.8889 115.469 41.2119 112.188 43.8578C108.942 46.5037 106.526 50.0139 104.938 54.3885C103.386 58.7278 102.61 63.4904 102.61 68.6764C102.61 73.8976 103.386 78.6779 104.938 83.0172C106.526 87.3565 108.942 90.8314 112.188 93.4421C115.469 96.0527 119.596 97.358 124.571 97.358ZM180.069 139.481V27.7178H195.521V40.8944H196.844C197.761 39.201 199.084 37.243 200.813 35.0205C202.541 32.7979 204.94 30.8576 208.009 29.1995C211.079 27.5061 215.136 26.6594 220.181 26.6594C226.742 26.6594 232.599 28.3175 237.749 31.6337C242.9 34.9499 246.94 39.7302 249.868 45.9745C252.831 52.2189 254.313 59.7332 254.313 68.5176C254.313 77.302 252.849 84.8341 249.921 91.1137C246.992 97.358 242.971 102.174 237.855 105.56C232.74 108.912 226.901 110.588 220.339 110.588C215.4 110.588 211.361 109.758 208.221 108.1C205.117 106.442 202.682 104.502 200.918 102.279C199.154 100.057 197.796 98.0812 196.844 96.3526H195.891V139.481H180.069ZM195.574 68.3589C195.574 74.074 196.403 79.0836 198.061 83.3876C199.719 87.6916 202.118 91.0608 205.258 93.495C208.397 95.8939 212.243 97.0934 216.794 97.0934C221.521 97.0934 225.472 95.841 228.647 93.3362C231.823 90.7962 234.222 87.3565 235.844 83.0172C237.502 78.6779 238.332 73.7918 238.332 68.3589C238.332 62.9965 237.52 58.181 235.897 53.9122C234.31 49.6435 231.911 46.2744 228.7 43.8049C225.525 41.3354 221.556 40.1006 216.794 40.1006C212.208 40.1006 208.327 41.2824 205.152 43.6461C202.012 46.0098 199.631 49.3084 198.008 53.5418C196.385 57.7753 195.574 62.7143 195.574 68.3589ZM272.04 139.481V27.7178H287.492V40.8944H288.815C289.733 39.201 291.056 37.243 292.784 35.0205C294.513 32.7979 296.912 30.8576 299.981 29.1995C303.05 27.5061 307.107 26.6594 312.152 26.6594C318.714 26.6594 324.57 28.3175 329.721 31.6337C334.872 34.9499 338.911 39.7302 341.839 45.9745C344.803 52.2189 346.284 59.7332 346.284 68.5176C346.284 77.302 344.82 84.8341 341.892 91.1137C338.964 97.358 334.942 102.174 329.827 105.56C324.712 108.912 318.873 110.588 312.311 110.588C307.372 110.588 303.333 109.758 300.193 108.1C297.088 106.442 294.654 104.502 292.89 102.279C291.126 100.057 289.768 98.0812 288.815 96.3526H287.863V139.481H272.04ZM287.545 68.3589C287.545 74.074 288.374 79.0836 290.033 83.3876C291.691 87.6916 294.09 91.0608 297.229 93.495C300.369 95.8939 304.215 97.0934 308.766 97.0934C313.493 97.0934 317.444 95.841 320.619 93.3362C323.794 90.7962 326.193 87.3565 327.816 83.0172C329.474 78.6779 330.303 73.7918 330.303 68.3589C330.303 62.9965 329.492 58.181 327.869 53.9122C326.281 49.6435 323.882 46.2744 320.672 43.8049C317.497 41.3354 313.528 40.1006 308.766 40.1006C304.179 40.1006 300.299 41.2824 297.124 43.6461C293.984 46.0098 291.602 49.3084 289.98 53.5418C288.357 57.7753 287.545 62.7143 287.545 68.3589ZM399.044 110.64C391.036 110.64 384.139 108.929 378.353 105.507C372.602 102.05 368.157 97.1993 365.017 90.9549C361.913 84.6753 360.361 77.3197 360.361 68.8881C360.361 60.5623 361.913 53.2243 365.017 46.8741C368.157 40.524 372.532 35.5673 378.141 32.0041C383.786 28.441 390.383 26.6594 397.933 26.6594C402.519 26.6594 406.964 27.4179 411.268 28.9349C415.572 30.4519 419.435 32.8332 422.857 36.0788C426.279 39.3245 428.978 43.5403 430.953 48.7263C432.929 53.877 433.917 60.1389 433.917 67.5122V73.1215H369.304V61.2679H418.412C418.412 57.105 417.565 53.4183 415.872 50.208C414.178 46.9623 411.797 44.4046 408.728 42.5348C405.694 40.6651 402.131 39.7302 398.038 39.7302C393.593 39.7302 389.713 40.8238 386.396 43.0111C383.115 45.1631 380.575 47.9854 378.776 51.478C377.012 54.9353 376.13 58.6925 376.13 62.7496V72.0102C376.13 77.4432 377.083 82.0647 378.988 85.8748C380.928 89.6849 383.627 92.5954 387.084 94.6063C390.542 96.5819 394.581 97.5697 399.203 97.5697C402.201 97.5697 404.935 97.1463 407.405 96.2997C409.874 95.4177 412.009 94.1124 413.808 92.3837C415.607 90.6551 416.983 88.5207 417.936 85.9806L432.911 88.6794C431.712 93.0893 429.56 96.9523 426.455 100.269C423.386 103.549 419.523 106.107 414.866 107.942C410.245 109.741 404.971 110.64 399.044 110.64ZM461.897 110.005C459.004 110.005 456.517 108.982 454.436 106.936C452.354 104.855 451.314 102.35 451.314 99.4218C451.314 96.529 452.354 94.0595 454.436 92.0133C456.517 89.9318 459.004 88.8911 461.897 88.8911C464.79 88.8911 467.277 89.9318 469.359 92.0133C471.44 94.0595 472.481 96.529 472.481 99.4218C472.481 101.362 471.987 103.144 470.999 104.767C470.047 106.354 468.777 107.624 467.189 108.577C465.602 109.529 463.838 110.005 461.897 110.005Z" fill="white"/>
</svg>
