<svg width="1440" height="694" viewBox="0 0 1440 694" fill="none" xmlns="http://www.w3.org/2000/svg">
<rect width="1440" height="694" rx="45" fill="#C8FF62"/>
<path d="M498.459 352.739V401H482.637V292.624H498.247V332.947H499.253C501.158 328.573 504.068 325.098 507.984 322.522C511.9 319.947 517.016 318.659 523.331 318.659C528.905 318.659 533.773 319.806 537.936 322.099C542.134 324.392 545.38 327.814 547.673 332.365C550.001 336.881 551.166 342.525 551.166 349.299V401H535.343V351.204C535.343 345.242 533.808 340.62 530.739 337.339C527.67 334.023 523.401 332.365 517.933 332.365C514.193 332.365 510.842 333.159 507.878 334.747C504.95 336.334 502.64 338.662 500.946 341.732C499.288 344.766 498.459 348.435 498.459 352.739ZM606.518 402.64C598.898 402.64 592.248 400.894 586.568 397.402C580.888 393.909 576.478 389.023 573.338 382.743C570.198 376.464 568.628 369.126 568.628 360.729C568.628 352.298 570.198 344.924 573.338 338.61C576.478 332.295 580.888 327.391 586.568 323.898C592.248 320.406 598.898 318.659 606.518 318.659C614.138 318.659 620.788 320.406 626.468 323.898C632.148 327.391 636.558 332.295 639.698 338.61C642.837 344.924 644.407 352.298 644.407 360.729C644.407 369.126 642.837 376.464 639.698 382.743C636.558 389.023 632.148 393.909 626.468 397.402C620.788 400.894 614.138 402.64 606.518 402.64ZM606.571 389.358C611.51 389.358 615.602 388.053 618.848 385.442C622.093 382.831 624.492 379.356 626.045 375.017C627.632 370.678 628.426 365.898 628.426 360.676C628.426 355.49 627.632 350.728 626.045 346.388C624.492 342.014 622.093 338.504 618.848 335.858C615.602 333.212 611.51 331.889 606.571 331.889C601.596 331.889 597.469 333.212 594.188 335.858C590.942 338.504 588.526 342.014 586.938 346.388C585.386 350.728 584.61 355.49 584.61 360.676C584.61 365.898 585.386 370.678 586.938 375.017C588.526 379.356 590.942 382.831 594.188 385.442C597.469 388.053 601.596 389.358 606.571 389.358ZM662.069 431.481V319.718H677.521V332.894H678.844C679.761 331.201 681.084 329.243 682.813 327.02C684.541 324.798 686.94 322.858 690.009 321.199C693.079 319.506 697.136 318.659 702.181 318.659C708.742 318.659 714.599 320.318 719.749 323.634C724.9 326.95 728.94 331.73 731.868 337.975C734.831 344.219 736.313 351.733 736.313 360.518C736.313 369.302 734.849 376.834 731.921 383.114C728.992 389.358 724.971 394.174 719.855 397.56C714.74 400.912 708.901 402.588 702.339 402.588C697.4 402.588 693.361 401.758 690.221 400.1C687.117 398.442 684.682 396.502 682.918 394.279C681.154 392.057 679.796 390.081 678.844 388.353H677.891V431.481H662.069ZM677.574 360.359C677.574 366.074 678.403 371.084 680.061 375.388C681.719 379.692 684.118 383.061 687.258 385.495C690.397 387.894 694.243 389.093 698.794 389.093C703.521 389.093 707.472 387.841 710.647 385.336C713.823 382.796 716.222 379.356 717.844 375.017C719.502 370.678 720.332 365.792 720.332 360.359C720.332 354.997 719.52 350.181 717.897 345.912C716.31 341.644 713.911 338.274 710.7 335.805C707.525 333.335 703.556 332.101 698.794 332.101C694.208 332.101 690.327 333.282 687.152 335.646C684.012 338.01 681.631 341.308 680.008 345.542C678.385 349.775 677.574 354.714 677.574 360.359ZM754.04 431.481V319.718H769.492V332.894H770.815C771.733 331.201 773.056 329.243 774.784 327.02C776.513 324.798 778.912 322.858 781.981 321.199C785.05 319.506 789.107 318.659 794.152 318.659C800.714 318.659 806.57 320.318 811.721 323.634C816.872 326.95 820.911 331.73 823.839 337.975C826.803 344.219 828.284 351.733 828.284 360.518C828.284 369.302 826.82 376.834 823.892 383.114C820.964 389.358 816.942 394.174 811.827 397.56C806.712 400.912 800.873 402.588 794.311 402.588C789.372 402.588 785.333 401.758 782.193 400.1C779.088 398.442 776.654 396.502 774.89 394.279C773.126 392.057 771.768 390.081 770.815 388.353H769.863V431.481H754.04ZM769.545 360.359C769.545 366.074 770.374 371.084 772.033 375.388C773.691 379.692 776.09 383.061 779.229 385.495C782.369 387.894 786.215 389.093 790.766 389.093C795.493 389.093 799.444 387.841 802.619 385.336C805.794 382.796 808.193 379.356 809.816 375.017C811.474 370.678 812.303 365.792 812.303 360.359C812.303 354.997 811.492 350.181 809.869 345.912C808.281 341.644 805.882 338.274 802.672 335.805C799.497 333.335 795.528 332.101 790.766 332.101C786.179 332.101 782.299 333.282 779.124 335.646C775.984 338.01 773.602 341.308 771.98 345.542C770.357 349.775 769.545 354.714 769.545 360.359ZM881.044 402.64C873.036 402.64 866.139 400.929 860.353 397.507C854.602 394.05 850.157 389.199 847.017 382.955C843.913 376.675 842.361 369.32 842.361 360.888C842.361 352.562 843.913 345.224 847.017 338.874C850.157 332.524 854.532 327.567 860.141 324.004C865.786 320.441 872.383 318.659 879.933 318.659C884.519 318.659 888.964 319.418 893.268 320.935C897.572 322.452 901.435 324.833 904.857 328.079C908.279 331.324 910.978 335.54 912.953 340.726C914.929 345.877 915.917 352.139 915.917 359.512V365.122H851.304V353.268H900.412C900.412 349.105 899.565 345.418 897.872 342.208C896.178 338.962 893.797 336.405 890.728 334.535C887.694 332.665 884.131 331.73 880.038 331.73C875.593 331.73 871.713 332.824 868.396 335.011C865.115 337.163 862.575 339.985 860.776 343.478C859.012 346.935 858.13 350.693 858.13 354.75V364.01C858.13 369.443 859.083 374.065 860.988 377.875C862.928 381.685 865.627 384.595 869.084 386.606C872.542 388.582 876.581 389.57 881.203 389.57C884.201 389.57 886.935 389.146 889.405 388.3C891.874 387.418 894.009 386.112 895.808 384.384C897.607 382.655 898.983 380.521 899.936 377.981L914.911 380.679C913.712 385.089 911.56 388.952 908.455 392.269C905.386 395.549 901.523 398.107 896.866 399.942C892.245 401.741 886.971 402.64 881.044 402.64ZM943.897 402.005C941.004 402.005 938.517 400.982 936.436 398.936C934.354 396.855 933.314 394.35 933.314 391.422C933.314 388.529 934.354 386.059 936.436 384.013C938.517 381.932 941.004 380.891 943.897 380.891C946.79 380.891 949.277 381.932 951.359 384.013C953.44 386.059 954.481 388.529 954.481 391.422C954.481 393.362 953.987 395.144 952.999 396.767C952.047 398.354 950.777 399.624 949.189 400.577C947.602 401.529 945.838 402.005 943.897 402.005Z" fill="#010101"/>
<path d="M618.228 649L613.506 631.732H615.631L619.24 645.796H619.408L623.084 631.732H625.445L629.122 645.796H629.29L632.899 631.732H635.024L630.302 649H628.144L624.332 635.239H624.197L620.386 649H618.228ZM641.584 649.27C640.336 649.27 639.26 648.994 638.355 648.443C637.455 647.887 636.761 647.111 636.272 646.116C635.788 645.116 635.547 643.952 635.547 642.626C635.547 641.299 635.788 640.13 636.272 639.118C636.761 638.1 637.441 637.308 638.312 636.74C639.189 636.167 640.212 635.88 641.382 635.88C642.056 635.88 642.722 635.992 643.38 636.217C644.038 636.442 644.636 636.808 645.176 637.313C645.716 637.814 646.146 638.477 646.466 639.303C646.786 640.13 646.947 641.147 646.947 642.356V643.199H636.963V641.479H644.923C644.923 640.748 644.777 640.096 644.484 639.523C644.198 638.949 643.787 638.497 643.253 638.165C642.725 637.833 642.101 637.668 641.382 637.668C640.589 637.668 639.903 637.864 639.324 638.258C638.751 638.646 638.31 639.152 638 639.776C637.691 640.4 637.537 641.068 637.537 641.782V642.929C637.537 643.907 637.705 644.736 638.043 645.416C638.385 646.091 638.86 646.605 639.468 646.959C640.075 647.308 640.78 647.482 641.584 647.482C642.107 647.482 642.579 647.409 643 647.263C643.428 647.111 643.796 646.886 644.105 646.588C644.414 646.285 644.653 645.908 644.822 645.459L646.744 645.998C646.542 646.65 646.202 647.224 645.724 647.718C645.246 648.207 644.656 648.59 643.953 648.865C643.251 649.135 642.461 649.27 641.584 649.27ZM651.964 631.732V649H649.974V631.732H651.964ZM660.87 649.27C659.655 649.27 658.61 648.983 657.733 648.41C656.856 647.836 656.182 647.047 655.709 646.04C655.237 645.034 655.001 643.885 655.001 642.592C655.001 641.276 655.243 640.116 655.726 639.109C656.215 638.098 656.895 637.308 657.767 636.74C658.644 636.167 659.667 635.88 660.836 635.88C661.747 635.88 662.567 636.049 663.298 636.386C664.029 636.723 664.627 637.195 665.094 637.803C665.561 638.41 665.85 639.118 665.962 639.927H663.973C663.821 639.337 663.484 638.814 662.961 638.359C662.444 637.898 661.747 637.668 660.87 637.668C660.094 637.668 659.414 637.87 658.829 638.275C658.25 638.674 657.798 639.239 657.472 639.97C657.151 640.695 656.991 641.546 656.991 642.524C656.991 643.525 657.148 644.396 657.463 645.138C657.784 645.88 658.233 646.456 658.812 646.867C659.397 647.277 660.083 647.482 660.87 647.482C661.387 647.482 661.856 647.392 662.278 647.212C662.699 647.033 663.056 646.774 663.349 646.437C663.641 646.099 663.849 645.695 663.973 645.223H665.962C665.85 645.987 665.572 646.676 665.128 647.288C664.689 647.895 664.107 648.379 663.382 648.739C662.663 649.093 661.825 649.27 660.87 649.27ZM674.133 649.27C672.964 649.27 671.938 648.992 671.055 648.435C670.178 647.879 669.493 647.1 668.998 646.099C668.509 645.099 668.264 643.93 668.264 642.592C668.264 641.243 668.509 640.065 668.998 639.059C669.493 638.053 670.178 637.271 671.055 636.715C671.938 636.158 672.964 635.88 674.133 635.88C675.302 635.88 676.325 636.158 677.202 636.715C678.085 637.271 678.77 638.053 679.259 639.059C679.754 640.065 680.001 641.243 680.001 642.592C680.001 643.93 679.754 645.099 679.259 646.099C678.77 647.1 678.085 647.879 677.202 648.435C676.325 648.992 675.302 649.27 674.133 649.27ZM674.133 647.482C675.021 647.482 675.752 647.255 676.325 646.799C676.899 646.344 677.323 645.745 677.598 645.003C677.874 644.261 678.012 643.457 678.012 642.592C678.012 641.726 677.874 640.919 677.598 640.172C677.323 639.424 676.899 638.82 676.325 638.359C675.752 637.898 675.021 637.668 674.133 637.668C673.245 637.668 672.514 637.898 671.941 638.359C671.367 638.82 670.943 639.424 670.667 640.172C670.392 640.919 670.254 641.726 670.254 642.592C670.254 643.457 670.392 644.261 670.667 645.003C670.943 645.745 671.367 646.344 671.941 646.799C672.514 647.255 673.245 647.482 674.133 647.482ZM683.039 649V636.049H684.962V638.072H685.13C685.4 637.381 685.836 636.844 686.437 636.462C687.039 636.074 687.761 635.88 688.604 635.88C689.458 635.88 690.17 636.074 690.737 636.462C691.311 636.844 691.758 637.381 692.078 638.072H692.213C692.545 637.403 693.042 636.872 693.705 636.479C694.369 636.08 695.164 635.88 696.092 635.88C697.25 635.88 698.197 636.243 698.933 636.968C699.669 637.687 700.038 638.809 700.038 640.332V649H698.048V640.332C698.048 639.376 697.786 638.693 697.264 638.283C696.741 637.873 696.125 637.668 695.417 637.668C694.506 637.668 693.801 637.943 693.301 638.494C692.8 639.039 692.55 639.731 692.55 640.568V649H690.527V640.13C690.527 639.393 690.288 638.8 689.81 638.351C689.332 637.895 688.716 637.668 687.963 637.668C687.446 637.668 686.963 637.805 686.513 638.081C686.069 638.356 685.709 638.738 685.434 639.228C685.164 639.711 685.029 640.27 685.029 640.905V649H683.039ZM709.106 649.27C707.858 649.27 706.782 648.994 705.877 648.443C704.977 647.887 704.283 647.111 703.794 646.116C703.311 645.116 703.069 643.952 703.069 642.626C703.069 641.299 703.311 640.13 703.794 639.118C704.283 638.1 704.963 637.308 705.835 636.74C706.711 636.167 707.734 635.88 708.904 635.88C709.578 635.88 710.244 635.992 710.902 636.217C711.56 636.442 712.158 636.808 712.698 637.313C713.238 637.814 713.668 638.477 713.988 639.303C714.309 640.13 714.469 641.147 714.469 642.356V643.199H704.485V641.479H712.445C712.445 640.748 712.299 640.096 712.007 639.523C711.72 638.949 711.31 638.497 710.776 638.165C710.247 637.833 709.623 637.668 708.904 637.668C708.111 637.668 707.425 637.864 706.846 638.258C706.273 638.646 705.832 639.152 705.523 639.776C705.213 640.4 705.059 641.068 705.059 641.782V642.929C705.059 643.907 705.227 644.736 705.565 645.416C705.908 646.091 706.383 646.605 706.99 646.959C707.597 647.308 708.302 647.482 709.106 647.482C709.629 647.482 710.101 647.409 710.523 647.263C710.95 647.111 711.318 646.886 711.627 646.588C711.936 646.285 712.175 645.908 712.344 645.459L714.266 645.998C714.064 646.65 713.724 647.224 713.246 647.718C712.768 648.207 712.178 648.59 711.475 648.865C710.773 649.135 709.983 649.27 709.106 649.27ZM729.435 649.27C728.266 649.27 727.24 648.992 726.358 648.435C725.481 647.879 724.795 647.1 724.3 646.099C723.811 645.099 723.567 643.93 723.567 642.592C723.567 641.243 723.811 640.065 724.3 639.059C724.795 638.053 725.481 637.271 726.358 636.715C727.24 636.158 728.266 635.88 729.435 635.88C730.604 635.88 731.628 636.158 732.504 636.715C733.387 637.271 734.073 638.053 734.562 639.059C735.056 640.065 735.304 641.243 735.304 642.592C735.304 643.93 735.056 645.099 734.562 646.099C734.073 647.1 733.387 647.879 732.504 648.435C731.628 648.992 730.604 649.27 729.435 649.27ZM729.435 647.482C730.323 647.482 731.054 647.255 731.628 646.799C732.201 646.344 732.625 645.745 732.901 645.003C733.176 644.261 733.314 643.457 733.314 642.592C733.314 641.726 733.176 640.919 732.901 640.172C732.625 639.424 732.201 638.82 731.628 638.359C731.054 637.898 730.323 637.668 729.435 637.668C728.547 637.668 727.816 637.898 727.243 638.359C726.67 638.82 726.245 639.424 725.97 640.172C725.694 640.919 725.557 641.726 725.557 642.592C725.557 643.457 725.694 644.261 725.97 645.003C726.245 645.745 726.67 646.344 727.243 646.799C727.816 647.255 728.547 647.482 729.435 647.482ZM740.331 641.209V649H738.341V636.049H740.264V638.072H740.432C740.736 637.415 741.197 636.886 741.815 636.487C742.434 636.082 743.232 635.88 744.21 635.88C745.087 635.88 745.854 636.06 746.512 636.42C747.169 636.774 747.681 637.313 748.046 638.039C748.412 638.758 748.594 639.669 748.594 640.771V649H746.605V640.905C746.605 639.888 746.34 639.095 745.812 638.528C745.284 637.954 744.558 637.668 743.637 637.668C743.001 637.668 742.434 637.805 741.933 638.081C741.439 638.356 741.048 638.758 740.761 639.287C740.475 639.815 740.331 640.456 740.331 641.209ZM752.501 649V631.732H754.49V638.106H754.659C754.805 637.881 755.008 637.595 755.266 637.246C755.53 636.892 755.907 636.577 756.396 636.302C756.891 636.021 757.56 635.88 758.403 635.88C759.493 635.88 760.455 636.153 761.286 636.698C762.118 637.243 762.768 638.016 763.234 639.017C763.701 640.017 763.934 641.198 763.934 642.558C763.934 643.93 763.701 645.119 763.234 646.125C762.768 647.125 762.121 647.901 761.295 648.452C760.469 648.997 759.516 649.27 758.437 649.27C757.605 649.27 756.938 649.132 756.438 648.857C755.938 648.576 755.553 648.258 755.283 647.904C755.013 647.544 754.805 647.246 754.659 647.01H754.423V649H752.501ZM754.457 642.524C754.457 643.502 754.6 644.365 754.887 645.113C755.173 645.855 755.592 646.437 756.143 646.858C756.694 647.274 757.369 647.482 758.167 647.482C758.999 647.482 759.693 647.263 760.249 646.825C760.812 646.381 761.233 645.785 761.514 645.037C761.801 644.284 761.944 643.446 761.944 642.524C761.944 641.614 761.804 640.793 761.523 640.062C761.247 639.326 760.828 638.744 760.266 638.317C759.71 637.884 759.01 637.668 758.167 637.668C757.357 637.668 756.677 637.873 756.126 638.283C755.575 638.688 755.159 639.256 754.878 639.986C754.597 640.712 754.457 641.557 754.457 642.524ZM772.239 649.27C771.07 649.27 770.044 648.992 769.162 648.435C768.285 647.879 767.599 647.1 767.104 646.099C766.615 645.099 766.371 643.93 766.371 642.592C766.371 641.243 766.615 640.065 767.104 639.059C767.599 638.053 768.285 637.271 769.162 636.715C770.044 636.158 771.07 635.88 772.239 635.88C773.409 635.88 774.432 636.158 775.309 636.715C776.191 637.271 776.877 638.053 777.366 639.059C777.861 640.065 778.108 641.243 778.108 642.592C778.108 643.93 777.861 645.099 777.366 646.099C776.877 647.1 776.191 647.879 775.309 648.435C774.432 648.992 773.409 649.27 772.239 649.27ZM772.239 647.482C773.128 647.482 773.858 647.255 774.432 646.799C775.005 646.344 775.429 645.745 775.705 645.003C775.98 644.261 776.118 643.457 776.118 642.592C776.118 641.726 775.98 640.919 775.705 640.172C775.429 639.424 775.005 638.82 774.432 638.359C773.858 637.898 773.128 637.668 772.239 637.668C771.351 637.668 770.621 637.898 770.047 638.359C769.474 638.82 769.049 639.424 768.774 640.172C768.499 640.919 768.361 641.726 768.361 642.592C768.361 643.457 768.499 644.261 768.774 645.003C769.049 645.745 769.474 646.344 770.047 646.799C770.621 647.255 771.351 647.482 772.239 647.482ZM784.957 649.304C784.136 649.304 783.391 649.149 782.722 648.84C782.053 648.525 781.522 648.072 781.129 647.482C780.735 646.886 780.538 646.167 780.538 645.324C780.538 644.582 780.685 643.98 780.977 643.519C781.269 643.053 781.66 642.687 782.149 642.423C782.638 642.159 783.178 641.962 783.768 641.833C784.364 641.698 784.962 641.591 785.564 641.513C786.351 641.411 786.989 641.335 787.478 641.285C787.973 641.229 788.332 641.136 788.557 641.007C788.788 640.877 788.903 640.652 788.903 640.332V640.265C788.903 639.433 788.675 638.786 788.22 638.325C787.77 637.864 787.087 637.634 786.171 637.634C785.221 637.634 784.476 637.842 783.937 638.258C783.397 638.674 783.017 639.118 782.798 639.59L780.909 638.916C781.247 638.129 781.696 637.516 782.259 637.077C782.826 636.633 783.445 636.324 784.114 636.15C784.788 635.97 785.451 635.88 786.104 635.88C786.519 635.88 786.997 635.931 787.537 636.032C788.082 636.127 788.608 636.327 789.114 636.63C789.625 636.934 790.05 637.392 790.387 638.005C790.724 638.618 790.893 639.438 790.893 640.467V649H788.903V647.246H788.802C788.667 647.527 788.442 647.828 788.127 648.148C787.812 648.469 787.394 648.741 786.871 648.966C786.348 649.191 785.71 649.304 784.957 649.304ZM785.26 647.516C786.047 647.516 786.711 647.361 787.25 647.052C787.795 646.743 788.206 646.344 788.481 645.855C788.762 645.366 788.903 644.852 788.903 644.312V642.491C788.819 642.592 788.633 642.685 788.346 642.769C788.065 642.848 787.739 642.918 787.368 642.98C787.003 643.036 786.646 643.086 786.297 643.131C785.955 643.171 785.676 643.205 785.463 643.233C784.946 643.3 784.462 643.41 784.012 643.561C783.568 643.708 783.209 643.93 782.933 644.228C782.663 644.52 782.528 644.919 782.528 645.425C782.528 646.116 782.784 646.639 783.296 646.993C783.813 647.342 784.468 647.516 785.26 647.516ZM794.525 649V636.049H796.447V638.005H796.582C796.818 637.364 797.245 636.844 797.864 636.445C798.482 636.046 799.179 635.846 799.955 635.846C800.101 635.846 800.284 635.849 800.503 635.855C800.722 635.86 800.888 635.869 801 635.88V637.904C800.933 637.887 800.778 637.862 800.537 637.828C800.301 637.788 800.05 637.769 799.786 637.769C799.157 637.769 798.595 637.901 798.1 638.165C797.611 638.424 797.223 638.783 796.936 639.244C796.655 639.7 796.515 640.22 796.515 640.804V649H794.525ZM807.856 649.27C806.776 649.27 805.823 648.997 804.997 648.452C804.171 647.901 803.524 647.125 803.058 646.125C802.591 645.119 802.358 643.93 802.358 642.558C802.358 641.198 802.591 640.017 803.058 639.017C803.524 638.016 804.174 637.243 805.006 636.698C805.838 636.153 806.799 635.88 807.889 635.88C808.732 635.88 809.399 636.021 809.888 636.302C810.382 636.577 810.759 636.892 811.017 637.246C811.282 637.595 811.487 637.881 811.633 638.106H811.802V631.732H813.792V649H811.869V647.01H811.633C811.487 647.246 811.279 647.544 811.009 647.904C810.739 648.258 810.354 648.576 809.854 648.857C809.354 649.132 808.687 649.27 807.856 649.27ZM808.125 647.482C808.924 647.482 809.598 647.274 810.149 646.858C810.7 646.437 811.119 645.855 811.405 645.113C811.692 644.365 811.835 643.502 811.835 642.524C811.835 641.557 811.695 640.712 811.414 639.986C811.133 639.256 810.717 638.688 810.166 638.283C809.615 637.873 808.935 637.668 808.125 637.668C807.282 637.668 806.58 637.884 806.017 638.317C805.461 638.744 805.042 639.326 804.761 640.062C804.486 640.793 804.348 641.614 804.348 642.524C804.348 643.446 804.488 644.284 804.769 645.037C805.056 645.785 805.478 646.381 806.034 646.825C806.596 647.263 807.293 647.482 808.125 647.482ZM819.163 649.135C818.747 649.135 818.39 648.986 818.092 648.688C817.794 648.39 817.645 648.033 817.645 647.617C817.645 647.201 817.794 646.844 818.092 646.546C818.39 646.248 818.747 646.099 819.163 646.099C819.579 646.099 819.936 646.248 820.233 646.546C820.531 646.844 820.68 647.201 820.68 647.617C820.68 647.893 820.61 648.146 820.47 648.376C820.335 648.607 820.152 648.792 819.922 648.933C819.697 649.067 819.444 649.135 819.163 649.135Z" fill="#242424"/>
</svg>
